<?xml version="1.0" standalone="no"?>
<!DOCTYPE svg PUBLIC "-//W3C//DTD SVG 20010904//EN"
 "http://www.w3.org/TR/2001/REC-SVG-20010904/DTD/svg10.dtd">
<svg version="1.0" xmlns="http://www.w3.org/2000/svg"
 width="260.000000pt" height="260.000000pt" viewBox="0 0 260.000000 260.000000"
 preserveAspectRatio="xMidYMid meet">
<metadata>
Created by potrace 1.11, written by Peter Selinger 2001-2013
</metadata>
<g transform="translate(0.000000,260.000000) scale(0.100000,-0.100000)"
fill="#000000" stroke="none">
<path d="M823 2588 c2 -10 -145 -99 -208 -127 -12 -5 -27 -16 -34 -25 -10 -11
28 -2 118 30 73 25 134 44 136 42 3 -2 11 -35 19 -72 7 -37 12 -65 9 -62 -3 3
-16 -8 -30 -24 -33 -40 -77 -70 -110 -76 -15 -3 -30 -7 -35 -10 -18 -11 -171
-44 -196 -42 -15 1 -47 -9 -71 -21 -53 -28 -137 -37 -170 -19 -33 18 -151 189
-145 210 3 10 -2 19 -16 23 -11 3 -36 27 -55 52 l-35 46 0 -91 0 -91 41 -47
c22 -25 38 -52 35 -60 -3 -7 6 -20 20 -29 14 -9 22 -20 19 -25 -3 -4 1 -11 7
-13 9 -4 9 -6 1 -6 -6 -1 -21 13 -33 29 -12 17 -26 30 -32 30 -6 0 -17 8 -25
18 -16 19 -14 11 7 -30 7 -16 19 -28 26 -28 17 0 84 -80 84 -100 0 -21 -98
-186 -127 -214 -17 -16 -23 -32 -23 -69 0 -44 2 -48 20 -42 26 8 26 -12 0 -45
-12 -15 -20 -41 -20 -65 l0 -39 29 29 c62 65 97 76 134 44 7 -5 21 -16 31 -23
18 -13 18 -15 -9 -70 -29 -60 -54 -85 -105 -106 -23 -9 -37 -10 -55 -2 l-23
11 1 -130 c0 -71 3 -129 7 -129 14 0 30 26 30 50 0 18 9 31 31 44 26 15 35 16
62 5 45 -17 307 -142 399 -190 43 -22 82 -38 87 -35 9 6 148 -40 164 -54 4 -4
1 -76 -8 -161 -25 -235 -19 -215 -73 -241 -26 -13 -51 -28 -57 -34 -12 -13
-123 -37 -151 -33 -10 2 -29 -6 -41 -18 -20 -20 -121 -50 -151 -44 -7 1 -25
-5 -40 -13 -51 -27 -107 -42 -137 -37 -33 7 -79 74 -69 101 5 13 16 106 16
135 0 70 -28 174 -59 220 -11 17 -13 9 -13 -63 0 -62 4 -84 14 -88 18 -7 30
-69 17 -92 -6 -9 -11 -11 -11 -4 0 6 -4 12 -10 12 -6 0 -10 -101 -10 -282 0
-265 1 -284 19 -303 11 -11 35 -37 54 -57 32 -36 37 -38 96 -38 34 0 61 4 61
10 0 6 -4 10 -10 10 -5 0 -12 17 -16 38 -4 20 -18 51 -31 69 -13 17 -25 44
-26 60 -2 26 1 28 32 28 20 0 36 6 39 14 3 10 -1 13 -14 9 -11 -3 -32 3 -49
12 -23 13 -30 24 -30 46 0 25 8 33 60 61 33 18 94 39 135 48 41 9 102 23 135
31 55 13 61 13 73 -3 17 -24 15 -43 -6 -43 -40 0 -114 -34 -154 -71 l-43 -39
50 24 c78 38 163 60 179 47 7 -6 28 -46 47 -89 41 -95 68 -142 81 -142 6 0 8
-25 6 -60 l-3 -60 33 0 32 0 0 62 c0 68 24 258 41 324 8 30 19 45 44 58 60 32
77 54 73 94 -3 35 -1 36 67 71 118 61 182 83 252 86 38 2 69 9 74 16 9 15 59
-36 59 -61 0 -9 3 -37 6 -62 l6 -45 -68 -10 c-38 -6 -55 -11 -37 -12 17 0 35
-5 38 -11 3 -6 19 -10 35 -10 l28 0 7 -117 c8 -115 2 -302 -11 -355 l-6 -28
81 0 81 0 0 60 c0 49 11 90 65 232 36 95 70 182 75 194 5 14 21 23 47 27 76
13 112 8 169 -24 63 -36 69 -26 -61 -103 -44 -26 -91 -56 -105 -66 -25 -19
-24 -19 35 0 78 24 138 46 202 72 72 29 83 24 214 -96 22 -21 43 -36 46 -33 6
6 -47 56 -59 57 -5 0 -8 5 -8 10 0 6 15 4 36 -5 20 -8 47 -15 61 -15 21 0 83
-25 83 -34 0 -2 -24 -21 -52 -43 -29 -21 -96 -73 -148 -114 -52 -40 -109 -84
-125 -96 l-30 -22 70 -1 70 0 140 100 c77 55 145 100 151 100 12 0 54 -42 54
-55 0 -16 45 -75 57 -75 21 0 35 -37 19 -52 -11 -12 -6 -14 30 -16 l44 -2 0
130 c0 128 0 131 -24 141 -14 7 -22 17 -19 25 3 8 0 14 -6 14 -20 0 -11 15 19
33 30 18 30 18 30 113 0 52 -3 94 -6 94 -3 0 -14 -4 -24 -10 -14 -7 -20 -6
-24 7 -8 20 -3 25 28 27 25 1 25 1 25 98 l0 96 -30 -9 c-114 -35 -109 -35
-110 -11 0 13 -2 12 -9 -5 -12 -30 -43 -44 -101 -46 -27 -1 -49 -5 -49 -8 0
-10 -117 -32 -129 -25 -12 8 -160 200 -197 255 l-23 36 20 60 c24 75 37 87 88
89 26 0 35 3 26 9 -20 11 -19 56 3 88 72 110 223 280 294 333 l36 27 32 -55
c28 -50 31 -64 29 -123 -2 -64 -1 -67 23 -75 33 -11 80 -111 89 -188 3 -30 7
43 8 165 1 160 -2 224 -11 233 -9 9 -9 12 0 12 7 0 12 15 12 38 0 34 -4 39
-52 67 -28 17 -53 36 -56 43 -2 7 13 29 33 49 44 44 55 37 65 -44 5 -36 7 26
6 167 -1 224 -9 279 -41 302 -5 4 -6 8 -1 8 5 0 18 -7 28 -17 15 -13 18 -13
18 -2 0 8 -36 62 -79 119 -43 58 -77 107 -76 109 2 2 38 -17 79 -43 l76 -46 0
44 c0 44 -1 45 -62 82 -96 57 -268 177 -268 186 0 4 -53 8 -117 8 l-118 0 44
-40 c65 -59 199 -171 258 -215 63 -47 181 -195 190 -237 5 -26 3 -30 -10 -25
-13 5 -13 -1 4 -50 10 -31 19 -65 19 -76 0 -20 -38 -97 -54 -109 -5 -3 -11
-15 -12 -25 -3 -20 -80 -96 -92 -90 -4 2 -105 62 -225 133 l-219 129 6 95 c4
52 11 151 16 220 5 69 10 161 12 205 l3 80 -45 0 -45 0 -6 -105 c-7 -121 -6
-113 -19 -105 -5 3 -10 1 -10 -5 0 -6 -4 -8 -10 -5 -5 3 -10 18 -10 33 0 15
-7 64 -16 110 l-17 82 -64 0 -65 0 6 -27 c2 -16 8 -59 11 -98 7 -81 43 -331
51 -359 5 -15 -14 -8 -89 33 -52 28 -100 51 -106 51 -30 0 -2 -26 98 -91 111
-72 112 -73 125 -144 2 -11 7 -54 10 -95 3 -41 11 -123 18 -182 9 -83 9 -113
-1 -134 -9 -21 -9 -29 1 -41 9 -11 13 -54 13 -137 0 -115 -1 -121 -21 -124
-12 -2 -34 9 -54 28 -48 45 -48 29 1 -35 38 -51 44 -65 47 -121 4 -60 3 -64
-21 -73 -33 -13 -42 -28 -27 -47 10 -12 8 -19 -14 -39 -61 -57 -176 -75 -176
-28 0 8 -13 25 -29 38 -49 42 -99 126 -147 250 -25 66 -50 125 -54 130 -24 30
-93 209 -124 322 -43 156 -45 173 -14 165 27 -7 59 -42 53 -59 -2 -6 11 -17
28 -24 18 -7 47 -28 66 -48 18 -20 47 -51 64 -69 16 -18 32 -30 34 -28 8 7
-32 63 -65 90 -36 31 -40 50 -15 65 14 7 10 11 -25 20 -34 10 -46 19 -62 51
-11 22 -29 44 -39 50 -11 5 -23 20 -26 32 -4 11 -18 31 -31 43 -13 12 -24 29
-24 37 0 20 -23 68 -33 68 -23 0 -70 71 -88 132 -9 31 5 82 29 111 17 19 99
67 116 67 6 0 22 9 36 20 25 20 65 27 72 13 7 -17 251 -214 256 -208 3 2 -46
60 -107 129 -61 69 -111 130 -111 135 0 6 19 21 41 33 93 51 125 67 135 67 7
1 14 8 18 16 5 13 -13 15 -124 15 -75 0 -131 -4 -135 -10 -3 -5 -19 -10 -35
-10 -16 0 -32 5 -35 10 -3 6 -34 10 -68 10 l-62 -1 38 -30 c21 -17 37 -40 37
-51 0 -25 -56 -80 -99 -98 -48 -20 -61 -9 -61 54 0 30 -2 61 -5 68 -4 9 10 22
37 35 l43 22 -102 0 c-74 1 -102 -2 -100 -11z m1534 -233 c11 -21 -1 -12 -38
29 -30 32 -56 64 -58 70 -7 21 81 -69 96 -99z m-1503 -205 c33 -12 36 -50 4
-50 l-21 0 20 -22 c17 -20 21 -46 32 -208 15 -243 14 -302 -4 -326 -8 -10 -15
-30 -15 -43 0 -18 -4 -22 -20 -18 -23 6 -24 3 -8 -23 10 -15 8 -47 -12 -165
-13 -80 -27 -145 -30 -145 -18 0 -652 240 -667 252 -23 18 -14 46 29 97 24 28
57 70 73 93 17 24 40 44 50 46 11 2 30 8 43 14 17 9 31 9 55 0 18 -6 70 -16
117 -22 47 -6 107 -22 135 -35 55 -26 213 -70 221 -62 3 3 -16 13 -43 23 -26
9 -68 26 -93 36 l-45 18 49 -6 c54 -6 58 11 4 19 -18 2 -87 14 -153 25 -66 11
-146 23 -179 27 -32 4 -54 10 -50 14 15 14 212 42 377 54 271 20 184 32 -231
32 -162 0 -163 0 -182 25 -26 33 -26 84 0 110 27 27 81 60 98 60 7 0 29 12 47
26 35 26 73 34 168 34 26 0 47 4 47 9 0 5 13 14 28 20 15 6 40 25 56 41 15 17
34 30 41 30 7 0 15 7 19 15 6 18 7 18 40 5z m-184 -24 c0 -38 -81 -82 -129
-69 -17 4 -88 -22 -101 -37 -11 -14 -67 -29 -98 -27 -18 2 -36 -1 -39 -6 -3
-5 -12 4 -19 19 -18 34 -13 39 56 58 30 8 98 28 150 45 105 33 180 40 180 17z
m-415 -179 c21 -32 4 -120 -28 -153 -25 -25 -74 -47 -87 -39 -13 8 8 93 36
143 48 82 54 86 79 49z m784 -44 c0 -5 -4 -17 -9 -28 -8 -18 -9 -17 -9 8 -1
15 4 27 9 27 6 0 10 -3 9 -7z m1097 -109 c177 -111 185 -118 179 -143 -12 -48
-59 -136 -102 -187 -24 -29 -57 -74 -75 -101 -45 -67 -78 -104 -111 -126 -49
-32 -56 -20 -55 100 1 114 -29 549 -38 564 -14 24 32 -1 202 -107z m-1140 -7
c-12 -33 -15 -37 -16 -17 0 14 -3 50 -6 80 l-6 55 21 -38 c20 -35 21 -40 7
-80z m59 83 c-4 -12 -9 -19 -12 -17 -3 3 -2 15 2 27 4 12 9 19 12 17 3 -3 2
-15 -2 -27z m14 -54 c-9 -8 -10 -7 -5 7 3 10 7 24 7 30 1 7 3 4 6 -7 3 -10 -1
-23 -8 -30z m31 -139 c22 -65 43 -138 45 -162 3 -25 12 -59 20 -75 21 -41 9
-38 -31 8 -34 37 -34 37 -23 7 5 -16 32 -68 59 -115 46 -81 68 -140 53 -140
-4 0 -18 10 -31 23 -18 16 -26 18 -29 9 -4 -10 -8 -10 -19 -1 -7 6 -19 9 -25
7 -7 -2 22 -39 65 -82 67 -67 79 -85 92 -133 8 -31 12 -58 10 -60 -3 -3 -17
-2 -33 2 -21 5 -40 25 -75 78 -83 129 -147 222 -170 246 -50 54 -98 127 -93
139 3 8 5 28 6 45 1 31 1 31 11 -8 5 -22 11 -45 12 -52 4 -23 49 -103 58 -103
5 0 0 15 -11 34 -19 30 -20 43 -15 142 5 91 12 126 42 211 20 56 38 100 39 99
2 -1 21 -55 43 -119z m-107 28 c-3 -9 -8 -14 -10 -11 -3 3 -2 9 2 15 9 16 15
13 8 -4z m18 -549 c85 -131 85 -132 53 -122 -18 6 -30 15 -27 20 3 5 1 6 -4 3
-6 -4 -37 7 -68 23 -31 17 -63 30 -71 30 -17 0 -18 33 -2 137 9 64 13 74 22
59 6 -10 50 -78 97 -150z m-74 -173 c38 -14 88 -43 113 -63 25 -19 62 -48 83
-63 42 -32 46 -49 16 -71 -12 -8 -19 -19 -15 -24 3 -5 -5 -7 -18 -5 -15 3 -30
-2 -42 -15 -11 -11 -44 -25 -74 -31 -30 -6 -75 -19 -99 -28 -42 -16 -44 -16
-58 3 -8 10 -12 30 -9 44 3 14 10 82 17 153 7 70 14 127 15 127 2 0 34 -12 71
-27z m965 -178 c21 -28 47 -54 58 -59 19 -9 36 -41 32 -62 -1 -6 9 -16 24 -22
39 -18 19 -33 -42 -31 -51 2 -98 23 -212 94 -1 1 6 28 16 60 18 57 38 76 72
72 8 -1 31 -25 52 -52z m-227 12 c0 -24 -18 -23 -27 3 -6 17 -4 21 10 18 9 -2
17 -11 17 -21z m-106 -161 c41 -21 42 -23 20 -29 -40 -11 -69 -8 -69 7 0 8 -3
21 -6 30 -8 21 2 20 55 -8z m26 -71 c0 -5 -15 -11 -32 -13 -25 -3 -33 1 -33
13 0 12 8 16 33 13 17 -2 32 -7 32 -13z m908 -34 c9 -1 17 -9 17 -19 0 -10 4
-22 9 -27 6 -6 12 -22 15 -37 4 -22 -1 -32 -24 -48 -35 -25 -47 -25 -62 0 -7
11 -21 20 -31 20 -10 0 -16 -4 -13 -9 4 -5 -3 -7 -14 -4 -11 3 -20 9 -20 14 0
5 -5 9 -11 9 -6 0 -29 14 -51 32 -33 26 -37 33 -24 40 9 5 35 10 59 11 23 0
52 6 64 12 12 7 33 11 45 9 13 -1 31 -3 41 -3z m-1742 -60 c-7 -12 -18 -21
-25 -21 -8 0 -21 -16 -30 -35 -10 -20 -21 -33 -27 -30 -5 4 -9 -6 -9 -20 0
-24 -2 -25 -15 -11 -17 16 -6 60 17 69 7 3 -6 6 -29 6 -25 1 -48 -5 -57 -14
-19 -20 -27 -20 -37 -3 -13 20 -11 28 10 28 11 0 21 4 23 9 2 5 21 13 42 17
25 4 37 3 33 -3 -4 -6 3 -8 18 -5 14 2 25 11 25 18 0 8 10 14 25 14 14 0 25 5
25 12 0 9 3 9 11 1 8 -8 8 -17 0 -32z m789 -6 c1 11 4 15 6 8 3 -6 -10 -53
-27 -104 -25 -70 -34 -88 -40 -73 -4 10 -8 30 -8 43 -1 14 -7 32 -15 40 -11
12 -12 26 -7 51 l8 35 26 -55 26 -55 0 64 c1 59 2 63 16 45 14 -19 14 -19 15
1z m-793 -217 c-2 -18 -4 -4 -4 32 0 36 2 50 4 33 2 -18 2 -48 0 -65z m-96 63
c13 -10 29 -19 34 -20 9 -1 10 -23 6 -92 0 -11 -5 -17 -11 -14 -6 4 -10 -6
-11 -22 l-1 -28 -7 25 c-5 14 -15 39 -24 56 -9 17 -18 42 -21 55 -2 13 -7 32
-11 42 -10 23 15 23 46 -2z"/>
<path d="M1898 663 c12 -2 32 -2 45 0 12 2 2 4 -23 4 -25 0 -35 -2 -22 -4z"/>
<path d="M2396 505 c4 -8 8 -15 10 -15 2 0 4 7 4 15 0 8 -4 15 -10 15 -5 0 -7
-7 -4 -15z"/>
<path d="M681 254 c0 -11 3 -14 6 -6 3 7 2 16 -1 19 -3 4 -6 -2 -5 -13z"/>
<path d="M1612 1388 c2 -6 15 -18 28 -27 22 -15 23 -15 12 6 -12 22 -46 41
-40 21z"/>
<path d="M2145 1110 c-3 -5 1 -10 10 -10 9 0 13 5 10 10 -3 6 -8 10 -10 10 -2
0 -7 -4 -10 -10z"/>
<path d="M1 954 c0 -11 3 -14 6 -6 3 7 2 16 -1 19 -3 4 -6 -2 -5 -13z"/>
</g>
</svg>
