<?xml version="1.0" standalone="no"?>
<!DOCTYPE svg PUBLIC "-//W3C//DTD SVG 20010904//EN"
 "http://www.w3.org/TR/2001/REC-SVG-20010904/DTD/svg10.dtd">
<svg version="1.0" xmlns="http://www.w3.org/2000/svg"
 width="260.000000pt" height="260.000000pt" viewBox="0 0 260.000000 260.000000"
 preserveAspectRatio="xMidYMid meet">
<metadata>
Created by potrace 1.11, written by Peter Selinger 2001-2013
</metadata>
<g transform="translate(0.000000,260.000000) scale(0.100000,-0.100000)"
fill="#000000" stroke="none">
<path d="M214 2585 c-4 -8 -17 -15 -30 -15 -13 0 -28 -9 -34 -20 -6 -11 -17
-20 -25 -20 -8 0 -15 -4 -15 -10 0 -5 -6 -7 -13 -4 -8 3 -20 -10 -30 -31 -17
-35 -17 -36 8 -61 14 -14 23 -30 19 -35 -3 -6 2 -31 11 -55 9 -25 14 -51 11
-59 -3 -8 -1 -15 4 -15 13 0 13 -27 0 -32 -5 -1 -12 -38 -14 -82 -2 -47 0 -73
5 -65 13 20 12 -12 -1 -47 -8 -19 -8 -30 0 -38 7 -7 11 -7 10 -1 -5 25 1 45
14 45 8 0 17 6 19 13 4 7 9 3 13 -11 5 -18 9 -21 16 -10 7 9 8 4 4 -14 -5 -22
-3 -26 9 -22 8 4 15 15 15 25 0 11 5 16 14 13 15 -6 56 40 56 62 0 8 9 14 20
14 11 0 24 8 27 18 8 21 17 32 64 80 47 50 69 86 69 117 0 14 4 25 9 25 5 0
13 9 16 21 5 16 12 19 30 15 15 -4 25 -1 28 9 9 23 70 29 105 11 17 -9 51 -16
76 -16 36 0 46 4 51 20 4 11 11 18 16 14 5 -3 19 6 31 21 16 21 26 25 49 20
25 -6 29 -3 35 22 4 15 10 33 14 38 4 6 12 25 18 43 l11 32 -365 0 c-315 0
-365 -2 -370 -15z m-30 -481 c9 -22 -3 -32 -14 -14 -12 19 -12 30 -1 30 5 0
12 -7 15 -16z"/>
<path d="M1195 2568 c13 -52 9 -87 -10 -108 -10 -11 -15 -23 -11 -28 4 -4 14
2 22 13 13 17 16 18 24 5 8 -12 10 -12 10 -1 0 7 6 11 14 8 8 -3 21 2 30 11
13 16 13 22 1 57 -8 22 -14 48 -15 58 0 13 -9 17 -36 17 -36 0 -36 0 -29 -32z"/>
<path d="M1382 2588 c-15 -20 -26 -60 -23 -86 2 -14 -6 -32 -19 -44 l-22 -21
23 -13 c35 -20 38 -18 60 32 21 51 18 69 -7 38 -14 -17 -15 -18 -10 -1 3 10 6
28 6 39 0 15 4 18 18 13 9 -4 24 -8 32 -9 26 -2 52 -37 39 -53 -6 -7 -8 -13
-4 -13 4 0 2 -7 -5 -15 -11 -13 -10 -18 6 -30 13 -9 22 -10 29 -3 7 7 6 12 -2
15 -7 3 -13 12 -13 20 0 12 7 14 35 9 40 -8 40 -8 20 30 -8 16 -15 23 -15 17
0 -7 -6 -13 -14 -13 -9 0 -15 16 -19 45 -2 26 -7 49 -11 52 -8 8 -36 -17 -36
-33 0 -24 -28 -15 -34 11 -7 27 -18 32 -34 13z"/>
<path d="M1522 2580 c15 -24 24 -25 32 -5 7 19 21 19 40 0 13 -14 16 -13 26 5
10 19 8 20 -50 20 -58 0 -60 -1 -48 -20z"/>
<path d="M1700 2590 c-8 -5 -10 -10 -5 -10 6 0 17 5 25 10 8 5 11 10 5 10 -5
0 -17 -5 -25 -10z"/>
<path d="M1755 2579 c-4 -11 -12 -18 -19 -16 -6 3 -12 -3 -13 -12 -1 -9 -4
-27 -9 -40 -5 -18 -4 -23 7 -19 8 3 13 15 13 26 -2 29 2 28 20 -8 8 -17 10
-28 5 -25 -20 13 -7 -16 18 -39 32 -30 42 -26 23 9 -11 21 -11 27 3 43 10 10
14 22 11 25 -4 4 -13 -1 -20 -11 -12 -16 -13 -16 -15 3 0 11 0 32 1 47 2 33
-16 46 -25 17z"/>
<path d="M1856 2585 c-3 -9 0 -31 9 -47 11 -22 11 -27 1 -19 -7 6 -16 8 -19 5
-3 -4 4 -15 16 -25 19 -15 20 -20 9 -39 -17 -27 -3 -46 39 -55 17 -4 42 -13
57 -21 26 -13 25 -14 -23 -8 -27 3 -56 8 -64 10 -11 4 -12 2 -1 -11 35 -42
194 -91 320 -99 25 -2 71 -13 103 -26 46 -17 66 -32 90 -66 17 -24 38 -44 47
-44 18 0 60 -35 60 -50 0 -5 -4 -11 -9 -14 -5 -3 -7 -15 -4 -26 4 -14 -3 -28
-21 -45 -21 -20 -25 -30 -20 -52 9 -39 14 -45 31 -39 9 4 20 -5 31 -24 9 -17
25 -30 36 -30 17 0 18 6 13 73 -5 75 -23 127 -44 127 -15 0 -17 16 -4 24 5 4
8 30 6 59 -13 174 -14 227 -6 227 4 0 14 20 21 45 16 58 49 103 61 83 5 -8 9
7 9 40 0 28 -1 52 -2 53 -2 0 -168 3 -369 6 -343 5 -366 5 -373 -12z m179
-233 c-3 -3 -11 0 -18 7 -9 10 -8 11 6 5 10 -3 15 -9 12 -12z"/>
<path d="M1156 2564 c-4 -9 -4 -19 -1 -22 2 -3 7 3 11 12 4 9 4 19 1 22 -2 3
-7 -3 -11 -12z"/>
<path d="M1673 2550 c3 -11 1 -23 -4 -26 -5 -3 -9 0 -9 7 0 10 -3 10 -11 2
-11 -11 -5 -33 9 -33 4 0 15 6 24 14 18 13 15 56 -4 56 -6 0 -8 -9 -5 -20z"/>
<path d="M1281 2553 c0 -5 4 -17 9 -28 8 -18 9 -17 9 8 1 15 -3 27 -9 27 -5 0
-10 -3 -9 -7z"/>
<path d="M1010 2540 c0 -5 5 -10 10 -10 6 0 10 5 10 10 0 6 -4 10 -10 10 -5 0
-10 -4 -10 -10z"/>
<path d="M986 2521 c-4 -7 -5 -15 -2 -18 9 -9 19 4 14 18 -4 11 -6 11 -12 0z"/>
<path d="M1077 2507 c-13 -10 -14 -14 -2 -24 10 -9 14 -8 19 10 7 27 4 30 -17
14z"/>
<path d="M1135 2480 c-1 -23 3 -39 9 -37 13 4 14 69 1 74 -6 1 -10 -15 -10
-37z"/>
<path d="M2130 1935 c-7 -8 -20 -15 -29 -15 -13 0 -14 -2 -1 -9 17 -11 26 -7
40 20 13 23 7 25 -10 4z"/>
<path d="M2086 1875 c4 -8 10 -15 15 -15 5 0 9 7 9 15 0 8 -7 15 -15 15 -9 0
-12 -6 -9 -15z"/>
<path d="M2433 1608 c-26 -26 -40 -32 -85 -34 -97 -4 -164 -26 -190 -63 -8
-12 -28 -23 -44 -24 -16 -2 -45 -11 -64 -20 -88 -40 -110 -39 -207 10 -71 35
-73 35 -107 19 -19 -9 -41 -16 -49 -16 -9 0 -19 -4 -22 -10 -3 -5 -19 -10 -34
-10 -15 0 -32 -5 -38 -11 -14 -14 -63 13 -63 35 0 33 -25 36 -114 11 -87 -24
-104 -25 -137 -11 -8 4 -27 2 -41 -3 -14 -5 -28 -7 -31 -5 -14 14 -122 22
-153 11 -14 -5 -27 -3 -37 7 -17 18 -38 2 -30 -23 4 -13 2 -12 -10 2 -15 18
-16 18 -19 -1 -3 -17 -7 -18 -28 -9 -23 10 -46 12 -166 19 -45 2 -78 -16 -88
-48 -5 -17 -18 -23 -56 -28 -27 -4 -66 -14 -87 -22 -78 -33 -89 -36 -118 -38
-16 -1 -41 4 -55 11 -14 7 -33 13 -42 13 -9 0 -19 4 -22 8 -8 14 -70 1 -88
-19 -26 -27 -22 -37 19 -56 21 -8 48 -20 61 -26 16 -8 26 -7 34 1 22 22 57 13
97 -28 22 -22 48 -40 58 -40 11 0 29 -11 42 -24 18 -19 28 -22 59 -16 52 9
109 1 116 -17 3 -8 2 -12 -3 -9 -4 3 -17 -1 -27 -9 -17 -12 -17 -14 -2 -20 9
-4 25 -2 37 4 11 6 30 11 43 11 13 0 19 4 13 8 -5 4 -11 15 -13 25 -4 20 8 19
76 -9 18 -7 30 -9 27 -4 -3 6 -1 10 4 10 6 0 11 -7 11 -15 0 -15 8 -17 50 -17
42 0 51 2 44 13 -3 6 -17 8 -30 5 -17 -5 -24 -2 -24 8 0 16 20 22 72 21 31 0
37 3 32 17 -2 9 -1 19 4 21 13 9 35 -10 27 -23 -4 -6 0 -19 8 -28 9 -9 16 -21
16 -27 0 -5 4 -11 10 -13 6 -2 11 3 11 12 0 9 5 16 10 16 6 0 10 -7 10 -15 0
-11 7 -14 25 -9 23 6 24 4 15 -25 -7 -27 -6 -31 11 -31 24 0 24 -11 -1 -33
-22 -19 -35 -22 -25 -7 3 6 1 10 -5 10 -6 0 -13 -7 -17 -15 -5 -16 -43 -17
-54 -2 -3 4 -18 3 -33 -3 -15 -5 -52 -10 -83 -10 -43 0 -54 3 -50 14 3 8 -2
17 -11 21 -9 3 -18 1 -20 -5 -7 -20 -56 -32 -122 -30 -36 2 -81 3 -100 3 -19
-1 -114 -1 -210 -2 -212 -2 -420 -11 -420 -20 0 -3 62 -6 137 -5 76 0 110 -1
76 -3 -64 -4 -73 -9 -51 -31 9 -9 9 -12 -1 -12 -7 0 -10 -4 -7 -8 3 -5 -25
-10 -61 -11 -37 -1 -70 -4 -74 -7 -4 -2 -10 2 -12 8 -3 7 -6 -18 -6 -56 -1
-59 3 -74 22 -95 l22 -26 -22 19 -23 19 0 -65 c0 -48 3 -65 14 -65 11 0 12 7
5 31 -11 37 -11 79 -1 56 13 -28 44 -70 52 -70 11 0 7 19 -9 49 -8 14 -9 26
-3 30 5 3 12 16 16 28 6 19 11 21 32 12 14 -5 30 -7 35 -4 13 9 50 -15 43 -27
-4 -7 -3 -8 5 -4 6 4 9 12 6 17 -4 5 -1 9 4 9 6 0 11 -5 11 -12 0 -9 3 -9 12
0 14 14 42 16 33 2 -3 -5 -1 -10 4 -10 6 0 11 5 11 10 0 15 57 12 64 -2 5 -10
7 -10 12 0 3 6 12 12 20 12 9 0 12 -5 8 -12 -4 -6 -3 -9 2 -5 5 3 46 8 92 11
61 5 82 3 82 -6 0 -9 3 -9 12 0 15 15 31 16 22 0 -5 -8 0 -9 17 -4 13 3 46 9
73 11 42 4 47 3 36 -10 -11 -13 -10 -15 6 -9 18 5 18 5 0 -10 -17 -14 -21 -14
-36 -1 -9 8 -21 15 -26 15 -5 -1 1 -9 13 -19 12 -10 20 -21 18 -23 -3 -3 11
-5 30 -6 19 -1 35 3 35 8 0 6 -3 9 -7 8 -11 -4 -13 4 -7 28 5 17 14 21 50 22
31 0 42 -3 38 -11 -5 -8 -2 -7 7 1 18 17 30 15 23 -3 -4 -8 -1 -15 5 -15 6 0
11 6 11 14 0 13 31 18 104 17 38 0 -2 21 -42 22 -61 3 -35 17 43 24 56 5 67 4
63 -8 -3 -8 -15 -13 -28 -11 -19 2 -21 0 -10 -13 9 -11 17 -12 31 -4 27 14 42
3 28 -22 -9 -18 -8 -19 10 -7 11 6 17 16 15 20 -3 4 -1 8 5 8 5 0 15 -16 22
-34 7 -19 16 -33 21 -30 4 3 3 -6 -3 -20 -8 -16 -20 -25 -33 -25 -39 1 -61 -6
-77 -24 -14 -14 -22 -15 -44 -7 -20 8 -26 7 -23 -2 6 -16 46 -19 76 -5 18 8
25 8 33 -4 7 -11 9 -10 9 5 0 15 3 16 15 6 8 -7 15 -18 14 -24 0 -7 -2 -6 -6
1 -3 10 -8 10 -18 -1 -8 -8 -30 -12 -54 -10 -27 1 -41 -2 -45 -12 -8 -21 -44
-17 -57 7 -8 15 -8 19 0 15 16 -10 31 2 25 19 -6 15 -31 10 -52 -12 -16 -16
-36 -7 -28 13 3 7 1 16 -4 19 -5 3 -7 13 -4 23 5 16 5 16 -8 0 -13 -15 -15
-15 -26 3 -16 25 -15 32 3 25 8 -3 15 -1 15 4 0 6 -6 11 -12 11 -7 1 -17 2
-23 4 -5 1 -16 3 -22 3 -7 1 -13 9 -13 17 0 8 -5 15 -10 15 -7 0 -7 -6 -1 -18
15 -28 3 -64 -19 -57 -10 3 -21 2 -24 -3 -3 -6 -22 -13 -41 -16 -25 -5 -35
-12 -35 -26 0 -10 -12 -28 -27 -39 -14 -12 -24 -24 -21 -27 9 -9 48 19 54 38
3 10 12 18 20 18 8 0 13 4 10 9 -3 5 4 11 17 14 15 4 6 -8 -32 -43 -29 -28
-62 -50 -73 -50 -12 0 -17 -4 -12 -13 5 -9 4 -9 -6 0 -11 10 -11 16 3 31 15
16 15 21 4 30 -8 7 -16 11 -18 9 -3 -1 3 5 13 15 10 9 18 19 18 22 0 10 -38 7
-42 -3 -1 -5 -23 -12 -47 -16 -31 -5 -42 -4 -37 4 4 6 1 11 -8 11 -8 0 -17 -6
-20 -12 -3 -7 -3 -3 -1 8 5 18 2 21 -20 16 -35 -6 -31 5 8 22 l32 15 -37 -2
c-35 -2 -43 -8 -39 -30 1 -4 -4 -7 -11 -6 -7 1 -26 -3 -42 -10 -16 -6 -31 -9
-34 -7 -3 3 4 9 14 13 10 4 24 13 30 21 6 8 16 12 22 8 7 -4 12 -1 12 8 0 22
-10 20 -44 -9 -32 -28 -42 -30 -51 -14 -5 7 -12 5 -23 -5 -15 -13 -20 -13 -36
0 -11 8 -15 14 -10 14 6 0 15 -5 22 -12 9 -9 12 -8 12 5 0 9 -3 18 -7 18 -5 1
-18 3 -30 4 -13 1 -30 8 -40 16 -15 12 -16 12 -11 -2 5 -13 2 -16 -15 -12 -18
5 -20 3 -9 -8 19 -21 14 -31 -10 -18 -21 11 -22 11 -9 -4 12 -15 10 -17 -17
-17 -40 0 -61 -45 -23 -52 16 -3 15 -6 -10 -31 -27 -27 -29 -27 -29 -7 0 12
-4 18 -10 15 -5 -3 -10 2 -10 11 0 14 3 15 12 6 14 -14 28 -16 28 -3 0 11 -28
41 -38 41 -4 0 -8 -37 -8 -83 -1 -45 1 -73 5 -63 5 12 10 16 14 9 4 -6 4 -18
1 -26 -4 -12 0 -14 15 -10 23 6 28 19 9 26 -7 2 -9 8 -5 13 10 10 28 -16 23
-33 -3 -6 2 -14 10 -17 8 -3 14 -15 14 -26 0 -26 16 -26 23 1 8 29 31 19 35
-14 3 -25 -11 -37 -21 -19 -2 4 -2 2 -1 -5 5 -20 -14 -25 -19 -6 -4 16 -5 16
-6 -1 0 -10 7 -25 17 -32 24 -18 32 -17 26 4 -5 14 -4 14 4 3 9 -13 13 -13 29
0 16 12 17 12 6 -2 -10 -12 -10 -18 -1 -27 9 -9 7 -12 -10 -12 -12 0 -23 1
-25 3 -5 3 -37 -30 -37 -39 0 -3 7 -1 15 6 8 6 20 8 26 4 8 -4 9 -3 5 4 -10
17 7 15 30 -3 10 -9 13 -14 5 -13 -7 2 -16 -3 -18 -9 -3 -7 2 -13 11 -13 9 0
16 -3 16 -7 0 -5 -34 -8 -75 -8 -71 0 -75 -1 -75 -22 0 -13 -4 -23 -10 -23 -5
0 -10 -4 -10 -8 0 -5 32 -9 72 -10 63 -2 107 -16 93 -30 -2 -3 -11 1 -20 8 -9
7 -15 8 -15 2 0 -6 -6 -12 -12 -15 -7 -2 -5 -3 5 -2 9 2 17 -1 17 -6 0 -5 -6
-9 -14 -9 -7 0 -19 -7 -26 -15 -7 -8 -20 -14 -29 -14 -13 1 -13 2 1 6 21 5 21
8 8 33 -9 16 -15 17 -47 8 -49 -13 -63 -30 -63 -72 0 -36 0 -36 45 -36 25 0
45 -5 45 -10 0 -6 -18 -9 -45 -6 -34 3 -45 1 -45 -10 0 -20 126 -20 145 0 8 7
12 16 9 19 -3 2 2 7 11 11 9 3 13 2 10 -4 -3 -6 -1 -10 4 -10 6 0 11 5 11 10
0 13 43 13 56 0 6 -6 10 -3 11 10 1 14 -5 20 -20 21 -17 1 -15 3 8 8 21 6 34
3 42 -8 12 -13 13 -13 13 2 0 13 9 17 34 17 19 0 38 5 41 10 4 6 16 8 27 4 13
-4 19 -2 16 6 -4 13 -4 13 -66 4 -26 -4 -50 -11 -53 -17 -4 -6 -15 -1 -25 12
-20 23 -34 27 -34 10 0 -5 6 -7 12 -3 7 4 10 4 6 -1 -4 -4 -33 -9 -63 -10 -38
-1 -53 1 -46 8 6 6 20 11 32 12 15 1 23 9 26 25 4 29 6 31 30 34 23 4 30 46 9
58 -9 5 -16 19 -15 31 0 12 3 16 6 9 2 -6 9 -10 14 -7 5 4 6 -2 2 -12 -6 -16
-5 -16 11 -4 14 12 19 12 26 2 5 -9 10 -10 14 -3 4 6 14 8 22 5 9 -3 19 -2 23
3 3 5 17 15 31 23 l25 14 -20 -23 c-17 -20 -18 -23 -2 -17 13 5 17 1 17 -14 0
-19 1 -19 17 -4 14 14 14 18 2 27 -11 8 -10 9 4 4 9 -3 29 -1 43 4 17 7 23 7
19 0 -3 -6 0 -10 9 -10 8 0 16 6 18 12 3 9 12 8 31 -5 16 -11 27 -13 27 -6 0
6 6 9 14 6 8 -3 17 -3 20 1 4 3 15 6 26 7 11 1 18 0 15 -3 -5 -5 23 -62 31
-62 3 0 3 15 -1 33 l-6 32 18 -30 18 -30 3 32 c2 23 7 30 18 26 8 -3 14 0 14
6 0 6 5 11 10 11 6 0 10 -7 10 -16 0 -10 5 -12 12 -7 24 14 38 11 38 -8 0 -10
-4 -19 -10 -19 -5 0 -10 -11 -10 -25 0 -15 -6 -25 -15 -25 -11 0 -13 -8 -9
-32 4 -25 3 -29 -5 -18 -6 8 -11 25 -11 38 0 14 -6 22 -17 22 -14 0 -15 -2 -4
-9 11 -7 11 -13 -3 -32 l-16 -23 0 27 c0 22 -4 26 -22 23 -13 -1 -23 -9 -24
-17 -3 -38 -17 -60 -36 -56 -11 3 -21 0 -24 -8 -3 -8 -12 -11 -19 -9 -21 8
-55 -28 -55 -58 0 -16 -5 -28 -10 -28 -6 0 -8 15 -4 38 4 26 1 43 -11 57 -9
11 -14 15 -11 8 4 -7 -1 -12 -11 -12 -29 1 -50 -6 -67 -20 -9 -8 -19 -12 -21
-9 -5 5 -75 -55 -70 -60 4 -4 59 22 66 31 4 5 24 13 45 17 22 4 45 9 53 11 7
2 15 -1 18 -7 2 -7 -11 -14 -30 -18 -40 -8 -61 -46 -25 -46 17 0 18 3 8 15
-10 12 -10 15 4 15 9 0 16 -5 16 -11 0 -5 5 -7 10 -4 6 3 13 -1 16 -10 6 -14
8 -14 25 1 11 9 19 25 19 34 0 10 7 21 16 24 10 4 13 2 8 -7 -6 -9 -5 -9 7 0
8 7 26 10 40 7 13 -2 18 -2 12 2 -7 3 -13 10 -13 15 0 6 4 8 9 4 5 -3 16 2 25
10 13 14 16 14 25 -4 9 -16 8 -18 -9 -14 -13 4 -20 0 -20 -10 0 -22 -26 -39
-62 -42 -20 -1 -34 -8 -36 -18 -3 -13 26 -15 212 -16 l215 -2 4 58 3 58 2 -58
2 -58 135 2 c94 1 135 4 135 12 0 9 3 8 8 0 11 -17 192 -17 192 0 0 8 3 8 8
-1 7 -10 57 -12 221 -11 116 2 214 6 217 11 3 4 18 8 34 8 15 0 30 6 33 13 4
9 7 9 18 -1 7 -6 26 -12 41 -12 15 0 28 -4 28 -10 0 -16 108 -10 114 6 4 10
26 14 81 14 l75 0 0 30 c0 17 -5 30 -12 30 -8 1 -5 7 6 15 18 14 18 15 -6 24
-13 5 -44 15 -69 22 -24 7 -50 17 -56 22 -9 6 -13 6 -13 -1 0 -22 13 -42 26
-42 8 0 14 -5 14 -11 0 -8 -18 -10 -60 -6 -37 4 -60 3 -60 -3 0 -6 -7 -10 -15
-10 -8 0 -15 7 -15 15 0 8 -4 15 -10 15 -16 0 -11 -28 7 -38 15 -9 14 -10 -3
-16 -27 -8 -87 -14 -259 -26 -211 -14 -201 -15 -222 20 -15 25 -22 30 -44 25
-15 -4 -30 -1 -34 4 -3 6 -1 11 5 11 7 0 6 5 -2 14 -8 8 -26 12 -48 9 -25 -4
-40 0 -49 11 -12 14 -11 16 5 16 15 0 16 2 5 9 -17 11 -43 3 -35 -10 3 -5 1
-9 -5 -9 -5 0 -17 -3 -27 -7 -13 -5 -15 -3 -9 8 4 8 5 11 0 7 -4 -4 -17 -2
-28 4 -28 15 -138 23 -117 9 8 -6 26 -11 39 -11 17 0 22 -4 17 -16 -3 -9 -6
-18 -6 -20 0 -2 -5 -4 -11 -4 -5 0 -8 4 -5 9 3 5 -1 11 -9 15 -8 3 -19 -2 -24
-12 -7 -13 -27 -18 -90 -20 -45 -2 -93 -1 -107 2 -22 6 -25 10 -19 36 5 24 3
30 -10 30 -11 0 -15 5 -12 14 4 9 -12 25 -45 45 -47 30 -51 31 -64 14 -12 -17
-13 -16 -14 9 0 21 6 29 25 34 14 4 29 4 32 0 4 -3 -1 -6 -11 -6 -9 0 -14 -5
-11 -11 5 -7 15 -5 31 6 16 10 24 11 24 4 0 -8 4 -8 13 -1 7 6 22 9 34 6 11
-3 36 -1 56 4 28 8 37 7 41 -4 3 -8 15 -14 26 -14 19 0 24 -11 23 -47 -1 -19
5 -16 17 8 9 16 8 23 -3 32 -8 7 -17 24 -19 40 -4 22 -3 25 8 16 8 -6 14 -20
14 -30 0 -16 6 -18 51 -14 28 2 58 10 67 17 13 11 14 11 4 -8 -11 -20 -9 -21
31 -20 23 1 45 6 49 11 5 6 8 5 8 -2 0 -7 5 -13 10 -13 6 0 10 6 10 14 0 7 10
16 23 20 38 10 43 6 17 -15 -14 -11 -19 -18 -12 -14 6 3 12 1 12 -4 0 -6 -5
-11 -11 -11 -24 0 -2 -33 24 -36 31 -3 30 -4 17 30 -13 35 -5 51 27 53 19 1
22 -1 12 -8 -11 -7 -11 -9 4 -9 15 0 21 11 18 32 0 4 23 6 52 4 45 -2 52 -5
51 -23 0 -18 6 -20 63 -19 35 1 63 -3 63 -8 0 -5 13 -6 29 -3 33 7 62 -15 40
-29 -7 -4 -15 -2 -17 4 -2 8 -11 4 -23 -10 -12 -15 -17 -17 -13 -6 7 20 -19
30 -68 26 -19 -1 -39 2 -46 6 -7 4 -12 3 -12 -2 0 -20 27 -31 67 -28 31 2 40
0 36 -10 -4 -11 6 -13 44 -10 48 4 83 14 83 23 0 3 -8 12 -17 20 -13 10 -15
16 -5 19 6 3 12 17 12 30 0 13 4 24 9 24 5 0 7 -9 4 -20 -6 -22 12 -28 20 -7
3 7 6 4 6 -7 1 -12 6 -16 17 -12 9 3 20 6 26 6 6 0 3 11 -6 25 -15 23 -15 26
-1 31 8 4 25 4 36 1 29 -8 69 9 69 29 0 10 -5 14 -16 10 -8 -3 -12 -2 -9 4 3
6 13 10 22 10 13 0 14 -8 9 -42 -6 -35 -5 -39 8 -29 10 8 16 9 21 1 4 -6 -7
-13 -25 -17 -17 -3 -27 -9 -22 -12 5 -3 12 -13 15 -21 4 -12 6 -11 6 3 1 12 9
17 29 18 15 0 45 2 67 3 22 2 90 7 150 10 163 10 195 15 195 35 0 9 -5 22 -11
28 -6 6 -9 19 -6 29 3 17 5 16 14 -5 l10 -24 22 24 c13 14 20 17 16 8 -4 -11
0 -18 14 -22 13 -3 21 -13 21 -25 0 -28 15 -35 34 -16 14 13 16 56 16 324 l0
310 -177 3 -178 2 178 3 c134 1 177 5 177 15 0 8 -16 11 -55 9 -37 -3 -63 1
-78 11 -19 12 -24 12 -36 0 -10 -11 -38 -14 -132 -11 -65 2 -119 5 -119 8 0 3
-54 4 -120 3 -108 -2 -120 -1 -121 15 0 13 -3 12 -11 -5 -11 -24 -26 -27 -65
-17 -14 4 -23 14 -23 25 0 11 -4 19 -10 19 -5 0 -9 -3 -9 -7 3 -20 -2 -24 -17
-13 -13 11 -16 10 -21 -8 -4 -17 -12 -21 -42 -20 -20 0 -41 4 -46 9 -6 4 -30
12 -53 17 -34 8 -42 7 -42 -4 0 -8 -9 -14 -20 -14 -15 0 -20 7 -20 26 0 21 -3
24 -14 15 -11 -9 -15 -8 -20 5 -12 32 -6 83 12 93 9 5 15 13 12 18 -3 4 6 9
20 10 14 1 19 0 13 -3 -7 -3 -13 -12 -13 -19 0 -7 -9 -15 -20 -18 -16 -4 -20
-12 -18 -35 2 -27 4 -29 22 -20 19 11 19 12 2 18 -15 5 -16 8 -4 17 7 6 15 11
18 12 18 0 40 15 40 27 0 8 5 14 10 14 6 0 10 -4 10 -10 0 -5 8 -6 17 -3 12 5
15 2 10 -10 -4 -11 -2 -14 8 -10 8 3 12 9 9 14 -8 13 3 11 38 -7 20 -10 28
-11 22 -3 -5 9 -2 10 11 6 14 -6 16 -3 12 13 -6 23 5 26 25 8 22 -21 50 -22
46 -1 -4 21 21 55 35 46 13 -8 117 -11 113 -4 -2 3 30 7 72 8 98 2 168 9 210
22 18 5 30 6 27 1 -3 -4 2 -11 11 -14 8 -3 13 -10 9 -16 -3 -5 7 -12 22 -16
15 -3 33 -7 40 -9 7 -2 14 -1 17 3 5 9 -20 33 -27 25 -3 -3 -18 7 -34 21 l-28
26 28 0 c15 0 38 7 51 15 21 14 24 14 29 0 4 -8 14 -15 22 -15 9 0 14 4 11 9
-8 12 20 34 33 27 5 -4 15 0 23 7 7 8 21 13 30 11 11 -1 15 4 13 17 -2 10 -1
18 3 18 24 -4 32 7 46 55 21 71 21 126 1 126 -15 0 -47 29 -87 79 -23 27 -27
26 -65 -11z m-1998 -628 c3 -5 -1 -10 -9 -10 -9 0 -16 5 -16 10 0 6 4 10 9 10
6 0 13 -4 16 -10z m42 4 c-3 -3 -12 -4 -19 -1 -8 3 -5 6 6 6 11 1 17 -2 13 -5z
m381 -11 c-15 -2 -42 -2 -60 0 -18 2 -6 4 27 4 33 0 48 -2 33 -4z m-255 -42
c9 -9 -33 -11 -197 -10 -115 1 -203 5 -195 9 8 5 40 8 72 8 31 -1 59 1 62 4
11 11 246 1 258 -11z m1405 7 c-5 -13 -59 -31 -67 -21 -4 3 0 8 8 11 11 4 11
6 0 13 -9 6 -1 9 24 9 26 0 37 -4 35 -12z m-938 -7 c0 -16 -33 -19 -125 -11
-17 2 -16 3 4 8 39 11 121 13 121 3z m-187 -8 c-7 -2 -19 -2 -25 0 -7 3 -2 5
12 5 14 0 19 -2 13 -5z m-813 -49 c0 -2 -7 -4 -15 -4 -8 0 -15 4 -15 10 0 5 7
7 15 4 8 -4 15 -8 15 -10z m1000 -48 c0 -3 -4 -8 -10 -11 -5 -3 -10 -1 -10 4
0 6 5 11 10 11 6 0 10 -2 10 -4z m-190 -15 c0 -6 -4 -13 -10 -16 -5 -3 -10 1
-10 9 0 9 5 16 10 16 6 0 10 -4 10 -9z m1067 -37 c-3 -3 -12 -4 -19 -1 -8 3
-5 6 6 6 11 1 17 -2 13 -5z m-699 -11 c-10 -2 -18 -9 -18 -14 0 -6 -4 -7 -10
-4 -18 11 -10 21 18 22 15 0 19 -1 10 -4z m717 -2 c-11 -19 18 -24 32 -6 10
14 13 15 14 4 5 -48 3 -65 -5 -76 -5 -9 -4 -13 4 -13 8 0 11 -2 8 -5 -3 -3
-13 -3 -22 1 -15 6 -15 7 1 20 16 12 15 13 -14 14 -18 0 -33 5 -33 11 0 6 7 8
16 5 8 -3 12 -2 9 4 -8 12 -39 8 -59 -9 -18 -15 -52 -10 -48 7 1 7 -5 12 -14
12 -10 0 -14 -6 -11 -14 3 -8 -1 -20 -9 -27 -12 -10 -13 -9 -8 4 5 13 0 16
-24 12 -22 -2 -29 0 -26 10 3 7 1 16 -5 20 -6 3 -11 2 -11 -3 0 -5 -9 -12 -21
-15 -13 -4 -18 -10 -14 -17 6 -9 2 -9 -14 -1 -11 7 -21 14 -21 17 0 3 5 2 10
-1 6 -3 14 -4 20 0 11 7 2 35 -12 35 -6 0 -4 -7 3 -16 12 -15 11 -16 -9 -10
-18 6 -22 3 -23 -16 -1 -15 -3 -18 -6 -6 -5 18 -33 33 -33 18 0 -6 6 -10 13
-10 8 0 7 -3 -3 -10 -8 -5 -17 -6 -20 -2 -10 13 -33 13 -41 0 -5 -7 -9 -8 -9
-3 1 11 46 65 55 65 3 0 3 -5 -1 -12 -4 -6 -3 -8 4 -4 19 12 77 14 96 4 13 -7
21 -7 26 2 5 9 9 9 14 1 6 -9 74 -6 84 4 2 1 18 -1 37 -5 24 -5 40 -4 52 6 21
16 26 17 18 5z m-527 -10 c23 -1 32 -6 33 -18 1 -17 2 -17 6 0 4 14 8 16 19 6
9 -7 14 -8 14 -1 0 7 10 8 32 1 23 -6 34 -5 39 3 5 7 11 9 15 5 12 -12 -4 -20
-43 -24 -20 -1 -40 -8 -45 -15 -6 -10 -8 -10 -8 2 -1 9 -5 6 -10 -7 -11 -27
-32 -31 -28 -5 2 13 -3 16 -25 14 -15 -2 -35 2 -43 8 -10 9 -14 9 -14 1 0 -6
5 -11 11 -11 5 0 8 -4 5 -9 -4 -5 0 -11 6 -14 7 -2 -3 -4 -23 -4 -21 1 -36 6
-36 14 0 8 6 9 18 3 15 -8 16 -7 6 13 -10 21 -12 22 -27 8 -9 -9 -14 -23 -11
-31 4 -13 2 -13 -12 -1 -11 9 -17 10 -17 2 0 -6 -5 -11 -11 -11 -5 0 -7 5 -4
10 3 6 2 10 -4 10 -5 0 -12 -4 -16 -9 -9 -15 -46 -9 -40 7 2 7 1 11 -4 8 -5
-3 -15 2 -22 11 -12 15 -11 16 9 11 12 -4 22 -2 22 3 0 18 45 28 110 24 36 -2
80 -4 98 -4z m705 -10 c12 -2 8 -16 -5 -16 -7 0 -15 -2 -18 -5 -3 -3 -17 -11
-32 -17 -23 -10 -26 -10 -21 2 3 8 9 13 13 10 5 -3 12 0 16 6 5 9 -3 10 -30 5
-29 -6 -36 -4 -36 9 0 13 6 15 30 10 19 -4 30 -3 30 4 0 7 8 7 23 2 12 -5 25
-9 30 -10z m101 -6 c-25 -19 -35 -19 -28 0 4 8 16 15 27 15 20 0 20 0 1 -15z
m-689 -41 c-8 -9 -15 -27 -15 -41 0 -35 -9 -25 -14 15 -4 37 -3 37 24 39 18 2
19 0 5 -13z m404 -8 c9 -11 8 -15 -5 -20 -23 -9 -24 -8 -24 14 0 23 13 26 29
6z m-1761 -13 c16 -16 16 -16 0 -11 -9 4 -18 3 -20 -2 -2 -6 -9 -5 -18 0 -12
8 -12 10 5 11 l20 0 -20 9 c-18 8 -18 9 -2 9 10 1 26 -7 35 -16z m1844 -15
c-8 -8 -9 -4 -5 13 4 13 8 18 11 10 2 -7 -1 -18 -6 -23z m118 15 c0 -8 5 -11
12 -7 8 5 9 0 5 -15 -4 -17 -2 -21 9 -17 8 3 14 2 14 -3 0 -10 -42 -23 -49
-16 -2 3 1 5 7 5 7 0 3 13 -8 33 -17 28 -17 34 -5 34 8 0 15 -7 15 -14z
m-1885 -3 c3 -5 1 -10 -4 -10 -6 0 -11 5 -11 10 0 6 2 10 4 10 3 0 8 -4 11
-10z m478 -24 c12 -29 2 -30 -17 -1 -12 18 -13 24 -4 23 7 -2 16 -12 21 -22z
m1182 -4 c-6 -7 -34 11 -29 19 3 5 11 3 19 -4 7 -6 12 -13 10 -15z m-525 8 c0
-5 -4 -10 -10 -10 -5 0 -10 5 -10 10 0 6 5 10 10 10 6 0 10 -4 10 -10z m67 4
c-3 -3 -12 -4 -19 -1 -8 3 -5 6 6 6 11 1 17 -2 13 -5z m-1369 -18 c-11 -11
-26 -13 -48 -6 -5 2 38 17 53 19 4 1 2 -5 -5 -13z m264 -8 c-7 -7 -12 -8 -12
-2 0 14 12 26 19 19 2 -3 -1 -11 -7 -17z m354 7 c-3 -23 -12 -26 -13 -5 -1 11
2 20 7 20 4 0 7 -7 6 -15z m126 -35 c-3 -8 -15 -23 -27 -32 -16 -14 -17 -17
-4 -18 9 0 16 -6 16 -13 0 -9 -9 -12 -24 -9 -12 2 -20 8 -17 13 3 5 -2 6 -10
3 -8 -3 -17 -13 -19 -22 -3 -12 -5 -11 -6 5 0 12 3 24 9 28 5 3 7 12 3 20 -3
9 1 15 11 15 10 0 14 -6 10 -17 -5 -17 -5 -17 6 0 6 9 18 17 27 17 12 0 14 7
9 32 -6 30 -5 31 8 13 7 -11 11 -26 8 -35z m458 42 c0 -9 -45 -10 -53 -2 -3 3
8 6 24 7 16 1 29 -1 29 -5z m30 -2 c0 -5 -5 -10 -11 -10 -5 0 -7 5 -4 10 3 6
8 10 11 10 2 0 4 -4 4 -10z m656 -10 c8 0 14 -5 14 -11 0 -5 -5 -7 -10 -4 -6
4 -17 1 -25 -5 -11 -9 -21 -9 -42 -1 l-28 11 32 -5 c18 -2 35 0 38 5 3 6 1 10
-5 10 -6 0 -8 5 -4 12 6 9 9 9 12 0 2 -7 10 -12 18 -12z m-1470 -5 c-3 -8 0
-15 6 -15 6 0 8 -3 5 -6 -4 -4 -14 -1 -22 6 -13 11 -13 15 -3 21 18 12 21 11
14 -6z m984 -6 c0 -6 -4 -7 -10 -4 -5 3 -10 11 -10 16 0 6 5 7 10 4 6 -3 10
-11 10 -16z m215 11 c3 -5 1 -10 -4 -10 -6 0 -11 5 -11 10 0 6 2 10 4 10 3 0
8 -4 11 -10z m-575 -8 c0 -4 -14 -13 -30 -19 -34 -13 -31 3 4 17 27 11 26 11
26 2z m315 -2 c3 -6 -1 -7 -9 -4 -18 7 -21 14 -7 14 6 0 13 -4 16 -10z m-570
-10 c-3 -5 -1 -10 6 -10 10 0 10 -3 1 -12 -16 -16 -15 -25 4 -32 11 -4 15 -2
11 7 -3 8 1 14 9 14 8 0 13 -6 10 -14 -3 -7 -1 -13 3 -13 5 0 11 6 14 13 3 8
19 20 37 29 36 18 81 13 73 -8 -4 -10 3 -14 21 -14 14 0 26 -5 26 -11 0 -6 -8
-8 -19 -4 -14 4 -23 0 -31 -15 -6 -11 -16 -20 -23 -19 -9 0 -9 2 1 6 6 2 12 9
12 14 0 4 -6 6 -14 3 -7 -3 -16 2 -19 10 -7 17 -57 22 -57 6 0 -6 11 -8 28 -4
15 4 23 3 19 -2 -5 -5 -25 -9 -45 -9 -21 -1 -43 -5 -51 -9 -10 -6 -12 -5 -7 3
5 7 -4 13 -25 18 -31 6 -31 7 -10 15 14 5 21 14 18 22 -3 8 -3 17 0 20 10 10
15 7 8 -4z m362 4 c-3 -3 -12 -4 -19 -1 -8 3 -5 6 6 6 11 1 17 -2 13 -5z m170
0 c-3 -3 -12 -4 -19 -1 -8 3 -5 6 6 6 11 1 17 -2 13 -5z m-1107 -8 c0 -2 -9
-6 -20 -9 -11 -3 -20 -1 -20 4 0 5 9 9 20 9 11 0 20 -2 20 -4z m74 -11 c11 -8
17 -17 14 -20 -3 -3 -13 1 -22 10 -9 9 -20 13 -26 10 -5 -3 -10 -1 -10 4 0 15
21 13 44 -4z m101 -5 c-3 -5 -1 -10 6 -10 6 0 1 -9 -12 -19 -13 -11 -26 -17
-29 -15 -2 3 0 8 6 12 6 4 13 15 17 25 3 9 9 17 12 17 4 0 3 -4 0 -10z m656
-7 c13 -16 12 -17 -3 -4 -10 7 -18 15 -18 17 0 8 8 3 21 -13z m124 -6 c-26
-15 -54 -17 -62 -4 -4 6 4 8 20 5 16 -3 31 0 38 9 7 7 15 11 18 7 3 -3 -3 -11
-14 -17z m740 -5 c-8 -8 -25 10 -19 20 4 6 9 5 15 -3 4 -7 6 -15 4 -17z m-675
8 c0 -5 -4 -10 -9 -10 -6 0 -13 5 -16 10 -3 6 1 10 9 10 9 0 16 -4 16 -10z
m-683 -8 c8 -5 9 -13 3 -22 -8 -13 -10 -13 -10 2 0 9 -6 19 -12 21 -7 3 -8 6
-3 6 6 0 15 -3 22 -7z m743 4 c0 -2 -7 -7 -16 -10 -8 -3 -12 -2 -9 4 6 10 25
14 25 6z m450 -6 c0 -5 -2 -10 -4 -10 -3 0 -8 5 -11 10 -3 6 -1 10 4 10 6 0
11 -4 11 -10z m120 0 c-8 -5 -24 -9 -35 -9 -16 1 -16 2 5 9 35 11 48 11 30 0z
m-1866 -38 c15 -19 21 -21 27 -10 5 7 9 9 9 3 0 -13 -18 -41 -22 -35 -2 3 -8
14 -14 24 -6 11 -17 22 -25 24 -11 4 -12 2 -1 -9 26 -28 10 -38 -22 -14 -15
12 -17 17 -7 29 17 20 31 16 55 -12z m436 18 c0 -5 0 -12 0 -16 -1 -3 9 -13
21 -23 24 -19 69 -17 69 4 0 8 9 10 25 7 26 -5 48 -25 24 -21 -37 5 -46 -1
-41 -26 2 -14 0 -25 -6 -25 -6 0 -8 9 -5 20 3 12 0 20 -6 20 -7 0 -10 -4 -7
-8 3 -5 -8 -8 -25 -8 -16 0 -29 4 -29 10 -1 6 -8 2 -18 -9 -22 -27 -65 -29
-51 -3 8 15 5 17 -21 15 -16 -1 -30 -7 -30 -13 0 -16 -24 -24 -40 -14 -10 6
-8 9 8 12 17 2 19 6 12 18 -7 11 -12 12 -17 4 -10 -16 -81 -35 -88 -24 -6 10
42 50 61 50 8 0 14 -4 14 -10 0 -5 -7 -7 -15 -4 -8 4 -15 1 -15 -5 0 -17 28
-13 38 5 7 12 11 13 17 5 5 -9 12 -8 26 5 11 10 35 17 61 17 24 0 37 2 31 4
-15 5 -17 23 -3 23 6 0 10 -4 10 -10z m80 6 c0 -2 -7 -7 -16 -10 -8 -3 -12 -2
-9 4 6 10 25 14 25 6z m120 -6 c0 -5 -5 -10 -11 -10 -5 0 -7 5 -4 10 3 6 8 10
11 10 2 0 4 -4 4 -10z m1230 -20 c0 -5 -8 -10 -17 -10 -15 0 -16 2 -3 10 19
12 20 12 20 0z m-1769 -27 c13 -16 12 -17 -3 -4 -10 7 -18 15 -18 17 0 8 8 3
21 -13z m2246 -5 c-3 -8 -6 -5 -6 6 -1 11 2 17 5 13 3 -3 4 -12 1 -19z m-1613
-3 c3 -9 -1 -18 -9 -21 -8 -4 -15 -13 -15 -22 0 -8 -3 -13 -6 -9 -4 3 -3 14 1
24 5 10 7 24 6 31 -3 17 16 15 23 -3z m76 4 c0 -6 6 -9 14 -6 9 4 12 0 9 -12
-6 -24 30 -34 54 -14 17 13 16 14 -9 10 -20 -3 -28 0 -28 10 0 8 6 13 13 10 6
-2 21 -1 32 3 11 4 31 3 45 -1 l25 -7 -27 -1 c-16 -1 -28 -5 -28 -9 0 -16 12
-21 34 -12 17 6 23 5 23 -6 0 -11 -10 -13 -38 -10 -24 3 -42 0 -49 -9 -9 -10
-18 -11 -41 -3 -16 5 -36 8 -44 4 -12 -4 -13 -2 -3 14 7 10 8 23 4 27 -5 4
-11 2 -13 -4 -3 -7 -10 -13 -15 -13 -6 0 -8 3 -5 7 4 3 3 11 -2 17 -6 7 0 12
20 13 16 1 29 -3 29 -8z m-166 -15 c3 -8 2 -12 -4 -9 -6 3 -10 10 -10 16 0 14
7 11 14 -7z m46 6 c12 -8 11 -10 -7 -10 -13 0 -23 5 -23 10 0 13 11 13 30 0z
m1240 -14 c0 -19 -4 -23 -19 -19 -18 5 -18 6 -3 23 22 24 22 24 22 -4z m-1770
-7 c0 -4 -7 -6 -15 -3 -8 4 -15 10 -15 15 0 4 7 6 15 3 8 -4 15 -10 15 -15z
m440 -4 c0 -8 -5 -15 -11 -15 -5 0 -7 5 -4 10 3 6 1 10 -4 10 -6 0 -11 -7 -11
-15 0 -8 -4 -15 -9 -15 -5 0 -7 9 -4 20 6 23 43 27 43 5z m-580 1 c0 -3 -4 -8
-10 -11 -5 -3 -10 -1 -10 4 0 6 5 11 10 11 6 0 10 -2 10 -4z m1458 -31 c0 -29
-4 -30 -24 -10 -9 8 -11 15 -5 15 6 0 11 7 11 16 0 8 4 13 9 10 5 -3 9 -17 9
-31z m387 25 c-28 -12 -37 -12 -30 0 3 6 16 10 28 9 21 0 21 -1 2 -9z m600 0
c3 -5 -1 -10 -10 -10 -9 0 -13 5 -10 10 3 6 8 10 10 10 2 0 7 -4 10 -10z
m-2378 -6 c-3 -3 -12 -4 -19 -1 -8 3 -5 6 6 6 11 1 17 -2 13 -5z m190 0 c-3
-3 -12 -4 -19 -1 -8 3 -5 6 6 6 11 1 17 -2 13 -5z m483 2 c0 -3 -4 -8 -10 -11
-5 -3 -10 -1 -10 4 0 6 5 11 10 11 6 0 10 -2 10 -4z m243 -10 c4 -10 1 -13 -9
-9 -7 3 -14 1 -14 -5 0 -5 -12 -9 -26 -9 -17 0 -22 2 -13 8 7 4 17 5 21 3 5
-3 11 2 14 10 8 20 20 20 27 2z m36 -28 c0 -27 -2 -29 -8 -13 -5 11 -6 26 -4
33 8 21 13 13 12 -20z m111 16 c0 -2 -9 -4 -21 -4 -11 0 -18 4 -14 10 5 8 35
3 35 -6z m-483 -16 c-3 -8 -6 -5 -6 6 -1 11 2 17 5 13 3 -3 4 -12 1 -19z m659
13 c-3 -5 -15 -7 -26 -4 -28 7 -25 13 6 13 14 0 23 -4 20 -9z m194 -1 c8 -5
11 -12 8 -16 -10 -9 -38 3 -38 16 0 12 10 13 30 0z m75 0 c3 -5 1 -10 -4 -10
-6 0 -11 5 -11 10 0 6 2 10 4 10 3 0 8 -4 11 -10z m-185 -4 c0 -2 -7 -7 -16
-10 -8 -3 -12 -2 -9 4 6 10 25 14 25 6z m320 -6 c0 -5 -5 -10 -11 -10 -5 0 -7
5 -4 10 3 6 8 10 11 10 2 0 4 -4 4 -10z m40 -4 c-7 -7 -13 -7 -20 0 -6 6 -3
10 10 10 13 0 16 -4 10 -10z m47 -2 c-3 -3 -12 -4 -19 -1 -8 3 -5 6 6 6 11 1
17 -2 13 -5z m38 -4 c-3 -5 -11 -10 -16 -10 -6 0 -7 5 -4 10 3 6 11 10 16 10
6 0 7 -4 4 -10z m-1442 -17 c-7 -2 -19 -2 -25 0 -7 3 -2 5 12 5 14 0 19 -2 13
-5z m289 -23 c32 0 13 -13 -23 -15 -21 -2 -28 0 -21 7 6 6 8 18 5 27 -4 13 -2
13 7 -1 6 -10 21 -18 32 -18z m1004 -10 c3 0 3 8 0 18 -5 15 -4 14 9 -2 8 -10
12 -23 9 -27 -8 -14 -44 -11 -45 4 0 10 -2 10 -6 0 -4 -13 -43 -19 -43 -8 0 3
12 17 28 30 26 22 27 23 34 4 4 -10 10 -19 14 -19z m-756 26 c0 -2 -8 -10 -17
-17 -16 -13 -17 -12 -4 4 13 16 21 21 21 13z m493 -3 c-7 -2 -21 -2 -30 0 -10
3 -4 5 12 5 17 0 24 -2 18 -5z m770 -8 c4 -8 2 -17 -3 -20 -6 -4 -10 3 -10 14
0 25 6 27 13 6z m-1779 -23 c2 -4 -4 -8 -14 -8 -10 0 -16 4 -14 8 3 4 9 8 14
8 5 0 11 -4 14 -8z m-306 -17 c17 -13 29 -14 58 -6 30 8 34 8 23 -5 -9 -11 -7
-14 14 -14 32 0 44 -16 17 -23 -10 -3 -21 0 -24 7 -3 7 -7 8 -13 1 -4 -5 -15
-11 -23 -13 -11 -2 -10 1 3 12 25 19 7 27 -34 16 -47 -14 -52 -13 -46 10 3 10
0 21 -7 24 -6 2 -6 5 -1 5 6 1 21 -6 33 -14z m1422 -1 c0 -2 -9 -4 -20 -4 -11
0 -20 4 -20 9 0 5 9 7 20 4 11 -3 20 -7 20 -9z m-1280 2 c0 -2 -9 -6 -20 -9
-11 -3 -20 -1 -20 4 0 5 9 9 20 9 11 0 20 -2 20 -4z m657 -2 c-3 -3 -12 -4
-19 -1 -8 3 -5 6 6 6 11 1 17 -2 13 -5z m1099 -1 c-4 -4 -19 -8 -34 -10 -23
-2 -24 -1 -7 7 24 11 51 13 41 3z m-1366 -13 c0 -5 -2 -10 -4 -10 -3 0 -8 5
-11 10 -3 6 -1 10 4 10 6 0 11 -4 11 -10z m60 6 c0 -3 -4 -8 -10 -11 -5 -3
-10 -1 -10 4 0 6 5 11 10 11 6 0 10 -2 10 -4z m550 -6 c0 -5 -5 -10 -11 -10
-5 0 -7 5 -4 10 3 6 8 10 11 10 2 0 4 -4 4 -10z m320 -6 c0 -2 -7 -4 -15 -4
-8 0 -15 4 -15 10 0 5 7 7 15 4 8 -4 15 -8 15 -10z m-1180 -4 c0 -5 -5 -10
-11 -10 -5 0 -7 5 -4 10 3 6 8 10 11 10 2 0 4 -4 4 -10z m800 -20 c0 -5 -2
-10 -4 -10 -3 0 -8 5 -11 10 -3 6 -1 10 4 10 6 0 11 -4 11 -10z m-470 -144 c0
-7 -9 -16 -20 -19 -25 -6 -26 8 -2 22 22 13 22 13 22 -3z m484 -17 c-7 -11
-54 -12 -54 -1 0 15 10 19 35 14 14 -2 22 -8 19 -13z m-559 -15 c-9 -9 -18
-14 -21 -11 -9 9 6 27 22 27 13 0 13 -2 -1 -16z m1525 -9 c0 -12 -19 -12 -23
0 -4 9 -1 12 9 8 7 -3 14 -7 14 -8z m-1491 -32 c6 -22 7 -42 1 -52 -7 -13 -10
-10 -10 14 -1 17 -3 40 -6 53 -6 35 4 26 15 -15z m-634 -11 c-3 -3 -11 0 -18
7 -9 10 -8 11 6 5 10 -3 15 -9 12 -12z m1032 -14 c-3 -8 -6 -5 -6 6 -1 11 2
17 5 13 3 -3 4 -12 1 -19z m273 -4 c0 -8 -5 -12 -10 -9 -6 4 -8 11 -5 16 9 14
15 11 15 -7z"/>
<path d="M1796 731 c-4 -7 -5 -15 -2 -18 9 -9 19 4 14 18 -4 11 -6 11 -12 0z"/>
<path d="M1290 740 c-12 -8 -9 -10 13 -10 16 0 26 4 22 10 -8 12 -16 12 -35 0z"/>
<path d="M1430 729 c0 -5 5 -7 10 -4 6 3 10 8 10 11 0 2 -4 4 -10 4 -5 0 -10
-5 -10 -11z"/>
<path d="M1243 711 c0 -11 5 -17 9 -15 11 7 10 34 -1 34 -6 0 -9 -9 -8 -19z"/>
<path d="M1010 590 c-13 -8 -12 -10 3 -10 9 0 17 -4 17 -10 0 -5 5 -10 10 -10
6 0 10 7 10 16 0 8 -4 13 -9 10 -5 -4 -11 -2 -13 4 -2 6 -8 6 -18 0z"/>
<path d="M450 506 c0 -4 16 -6 35 -4 19 2 35 0 35 -5 0 -4 5 -5 10 -2 24 15 7
26 -35 23 -25 -2 -45 -7 -45 -12z"/>
<path d="M220 1260 c0 -22 25 -28 33 -7 4 9 8 8 16 -3 5 -8 13 -11 17 -7 12
11 -17 37 -42 37 -17 0 -24 -6 -24 -20z"/>
<path d="M385 1220 c-19 -8 -19 -9 3 -9 12 -1 22 4 22 9 0 6 -1 10 -2 9 -2 0
-12 -4 -23 -9z"/>
<path d="M2175 1210 c-2 -4 6 -12 19 -18 20 -9 23 -8 19 7 -4 17 -30 24 -38
11z"/>
<path d="M322 1178 c2 -6 21 -17 42 -24 27 -10 36 -10 34 -2 -2 6 -21 17 -42
24 -27 10 -36 10 -34 2z"/>
<path d="M1870 1179 c0 -5 5 -7 10 -4 6 3 10 8 10 11 0 2 -4 4 -10 4 -5 0 -10
-5 -10 -11z"/>
<path d="M1910 1171 c0 -6 5 -13 10 -16 6 -3 10 1 10 9 0 9 -4 16 -10 16 -5 0
-10 -4 -10 -9z"/>
<path d="M629 1139 c-23 -19 -23 -20 -2 -10 12 6 25 16 28 21 10 16 -1 12 -26
-11z"/>
<path d="M318 1143 c7 -3 16 -2 19 1 4 3 -2 6 -13 5 -11 0 -14 -3 -6 -6z"/>
<path d="M450 1140 c-13 -8 -12 -10 3 -10 9 0 17 5 17 10 0 12 -1 12 -20 0z"/>
<path d="M568 1133 c7 -3 16 -2 19 1 4 3 -2 6 -13 5 -11 0 -14 -3 -6 -6z"/>
<path d="M2178 1132 c-17 -3 -27 -23 -10 -21 22 4 34 -3 29 -15 -8 -20 14 -25
43 -9 18 9 20 13 8 13 -11 0 -15 5 -12 14 5 14 -27 25 -58 18z"/>
<path d="M2585 1130 c-3 -5 -1 -10 4 -10 6 0 11 5 11 10 0 6 -2 10 -4 10 -3 0
-8 -4 -11 -10z"/>
<path d="M2258 1123 c7 -3 16 -2 19 1 4 3 -2 6 -13 5 -11 0 -14 -3 -6 -6z"/>
<path d="M2385 1123 c11 -3 22 -9 25 -13 3 -4 11 -2 18 6 11 12 7 14 -25 13
-22 -1 -30 -3 -18 -6z"/>
<path d="M1600 1111 c0 -11 54 -31 82 -31 18 0 28 5 28 15 0 12 -8 14 -40 9
-23 -4 -40 -3 -40 3 0 5 -7 10 -15 10 -8 0 -15 -3 -15 -6z"/>
<path d="M1896 1113 c-2 -3 -34 -5 -70 -5 -62 0 -80 -8 -55 -24 6 -3 15 0 20
7 5 8 9 9 9 3 0 -7 15 -11 35 -11 19 1 35 5 35 9 0 14 49 9 57 -6 6 -12 10
-10 19 8 10 21 8 23 -18 23 -15 0 -30 -2 -32 -4z"/>
<path d="M2035 1111 c21 -9 93 -7 103 3 3 3 -24 6 -59 5 -43 0 -57 -3 -44 -8z"/>
<path d="M1673 1053 c9 -2 23 -2 30 0 6 3 -1 5 -18 5 -16 0 -22 -2 -12 -5z"/>
<path d="M2198 1053 c7 -3 16 -2 19 1 4 3 -2 6 -13 5 -11 0 -14 -3 -6 -6z"/>
<path d="M192 735 c-11 -12 -10 -15 3 -15 8 0 15 7 15 15 0 18 -2 18 -18 0z"/>
<path d="M285 740 c3 -5 11 -10 16 -10 6 0 7 5 4 10 -3 6 -11 10 -16 10 -6 0
-7 -4 -4 -10z"/>
<path d="M320 741 c0 -5 5 -13 10 -16 6 -3 10 -2 10 4 0 5 -4 13 -10 16 -5 3
-10 2 -10 -4z"/>
<path d="M460 740 c-13 -8 -13 -10 2 -10 9 0 20 5 23 10 8 13 -5 13 -25 0z"/>
<path d="M1082 741 c-11 -6 -9 -9 6 -13 15 -4 19 -2 15 8 -6 16 -4 16 -21 5z"/>
<path d="M375 730 c7 -12 65 -14 65 -2 0 4 -16 8 -36 10 -21 1 -33 -2 -29 -8z"/>
<path d="M911 724 c13 -16 29 -19 29 -5 0 5 -9 11 -21 14 -16 4 -18 3 -8 -9z"/>
<path d="M464 709 c-3 -5 6 -9 20 -9 31 0 34 6 6 13 -11 3 -23 1 -26 -4z"/>
<path d="M635 710 c-3 -5 -1 -10 4 -10 6 0 11 5 11 10 0 6 -2 10 -4 10 -3 0
-8 -4 -11 -10z"/>
<path d="M575 700 c-3 -5 -2 -10 4 -10 5 0 13 5 16 10 3 6 2 10 -4 10 -5 0
-13 -4 -16 -10z"/>
<path d="M1095 700 c4 -6 11 -8 16 -5 14 9 11 15 -7 15 -8 0 -12 -5 -9 -10z"/>
<path d="M597 654 c-17 -35 -17 -35 4 -32 16 2 22 11 24 36 3 42 -7 41 -28 -4z"/>
<path d="M879 686 c-1 -1 -3 -11 -4 -22 -2 -21 -1 -21 36 -6 22 8 39 18 39 22
0 4 -61 9 -71 6z"/>
<path d="M975 680 c-18 -8 -17 -9 8 -9 15 -1 27 4 27 9 0 12 -8 12 -35 0z"/>
<path d="M945 610 c-3 -6 1 -7 9 -4 18 7 21 14 7 14 -6 0 -13 -4 -16 -10z"/>
<path d="M0 408 c0 -39 10 -48 28 -25 8 9 5 19 -8 37 l-20 25 0 -37z"/>
<path d="M50 420 c0 -5 4 -10 10 -10 5 0 7 -7 4 -15 -4 -8 -1 -15 4 -15 16 0
23 16 16 34 -7 17 -34 22 -34 6z"/>
<path d="M90 329 c0 -5 5 -7 10 -4 6 3 10 8 10 11 0 2 -4 4 -10 4 -5 0 -10 -5
-10 -11z"/>
<path d="M2510 330 c0 -5 7 -7 15 -4 8 4 15 8 15 10 0 2 -7 4 -15 4 -8 0 -15
-4 -15 -10z"/>
<path d="M1957 304 c-10 -13 -14 -24 -9 -24 13 0 35 27 30 39 -1 5 -11 -2 -21
-15z"/>
<path d="M1515 300 c-3 -5 -1 -10 4 -10 6 0 11 5 11 10 0 6 -2 10 -4 10 -3 0
-8 -4 -11 -10z"/>
<path d="M1576 294 c-8 -22 -8 -54 2 -54 4 0 7 16 8 35 1 39 -1 42 -10 19z"/>
<path d="M2510 299 c0 -5 6 -9 13 -10 6 0 22 -2 35 -5 12 -2 22 1 22 6 0 6 -3
11 -7 11 -44 7 -63 6 -63 -2z"/>
<path d="M7 264 c6 -17 44 -15 50 2 2 6 -9 11 -26 12 -22 0 -28 -3 -24 -14z"/>
<path d="M70 264 c0 -8 5 -12 10 -9 6 3 10 10 10 16 0 5 -4 9 -10 9 -5 0 -10
-7 -10 -16z"/>
<path d="M2280 270 c0 -5 5 -10 10 -10 6 0 10 5 10 10 0 6 -4 10 -10 10 -5 0
-10 -4 -10 -10z"/>
<path d="M446 254 c-5 -14 -4 -15 9 -4 17 14 19 20 6 20 -5 0 -12 -7 -15 -16z"/>
<path d="M1861 254 c0 -11 3 -14 6 -6 3 7 2 16 -1 19 -3 4 -6 -2 -5 -13z"/>
<path d="M1905 261 c3 -5 1 -12 -5 -16 -5 -3 -10 -11 -10 -18 0 -8 3 -8 12 1
15 15 32 16 23 2 -8 -12 25 -13 44 -1 19 12 4 33 -19 26 -10 -3 -21 -1 -25 5
-3 5 -11 10 -16 10 -6 0 -8 -4 -4 -9z"/>
<path d="M1470 250 c0 -5 5 -10 10 -10 6 0 10 5 10 10 0 6 -4 10 -10 10 -5 0
-10 -4 -10 -10z"/>
<path d="M1060 230 c-13 -9 -13 -12 4 -25 17 -13 17 -15 2 -30 -13 -14 -19
-15 -32 -5 -12 11 -17 10 -28 -6 -15 -20 -5 -44 18 -44 6 0 6 4 -2 9 -23 14
28 21 86 12 29 -4 52 -4 52 0 0 5 -7 9 -15 9 -21 0 -19 28 3 33 10 3 6 5 -10
6 -16 0 -28 6 -28 11 0 6 -6 10 -14 10 -8 0 -16 7 -18 15 -2 10 -7 12 -18 5z"/>
<path d="M15 220 c-3 -5 -1 -10 4 -10 6 0 11 5 11 10 0 6 -2 10 -4 10 -3 0 -8
-4 -11 -10z"/>
<path d="M1462 210 c-10 -17 -10 -20 4 -20 8 0 13 -3 11 -7 -3 -5 13 -9 35
-11 45 -3 44 12 -2 21 -21 5 -28 11 -24 22 9 22 -9 18 -24 -5z"/>
<path d="M2408 223 c-16 -3 -28 -11 -28 -19 0 -8 5 -12 11 -9 5 4 20 -1 32
-11 12 -10 16 -12 10 -4 -22 24 -15 30 35 31 35 0 42 3 27 9 -21 9 -42 10 -87
3z"/>
<path d="M2562 221 c-10 -6 -10 -10 3 -21 8 -7 15 -10 15 -7 0 3 3 12 6 21 7
17 -3 20 -24 7z"/>
<path d="M2520 210 c0 -5 5 -10 10 -10 6 0 10 5 10 10 0 6 -4 10 -10 10 -5 0
-10 -4 -10 -10z"/>
<path d="M635 190 c-3 -5 -1 -10 4 -10 6 0 11 5 11 10 0 6 -2 10 -4 10 -3 0
-8 -4 -11 -10z"/>
<path d="M301 164 c8 -9 18 -10 36 -3 29 11 45 3 23 -12 -11 -7 -9 -8 10 -5
14 3 30 5 35 5 6 1 -3 8 -18 16 -36 18 -102 18 -86 -1z"/>
<path d="M1688 173 c7 -3 16 -2 19 1 4 3 -2 6 -13 5 -11 0 -14 -3 -6 -6z"/>
<path d="M2486 164 c-4 -9 -2 -22 3 -28 12 -14 -22 -49 -35 -38 -4 4 -4 -2 1
-13 4 -11 8 -29 10 -40 1 -15 11 -21 41 -26 21 -3 49 -9 62 -13 26 -9 44 20
21 35 -12 7 -12 9 1 9 11 0 10 4 -4 12 -19 10 -19 11 -1 24 24 18 16 25 -34
27 -42 1 -53 10 -26 21 13 5 12 9 -5 26 -24 24 -26 24 -34 4z m14 -115 c0 -6
-4 -7 -10 -4 -5 3 -10 11 -10 16 0 6 5 7 10 4 6 -3 10 -11 10 -16z"/>
<path d="M255 160 c-3 -5 -1 -10 4 -10 6 0 11 5 11 10 0 6 -2 10 -4 10 -3 0
-8 -4 -11 -10z"/>
<path d="M1573 155 c0 -8 4 -15 9 -15 4 0 8 7 8 15 0 8 -4 15 -8 15 -5 0 -9
-7 -9 -15z"/>
<path d="M2375 161 c-18 -7 -17 -8 7 -14 16 -4 28 -16 32 -32 7 -28 13 -30 39
-11 16 12 16 17 5 35 -7 12 -18 19 -25 17 -7 -3 -15 -1 -18 4 -7 11 -13 12
-40 1z"/>
<path d="M1 144 c0 -11 3 -14 6 -6 3 7 2 16 -1 19 -3 4 -6 -2 -5 -13z"/>
<path d="M550 130 c0 -5 -7 -7 -15 -4 -11 5 -13 2 -9 -10 5 -12 10 -13 25 -5
20 10 26 29 9 29 -5 0 -10 -4 -10 -10z"/>
<path d="M1975 130 c-3 -5 -1 -10 4 -10 6 0 11 5 11 10 0 6 -2 10 -4 10 -3 0
-8 -4 -11 -10z"/>
<path d="M2396 85 c6 -26 -4 -33 -23 -14 -7 7 -14 1 -22 -22 -17 -48 -16 -49
48 -48 59 2 60 2 59 30 l-1 29 -24 -26 c-13 -15 -27 -23 -30 -20 -4 3 3 16 15
29 26 27 28 37 7 37 -8 0 -15 7 -15 15 0 8 -5 15 -10 15 -6 0 -8 -11 -4 -25z
m-25 -68 c-10 -9 -11 -8 -5 6 3 10 9 15 12 12 3 -3 0 -11 -7 -18z"/>
<path d="M399 20 c-17 -14 -20 -19 -9 -20 8 0 21 9 28 20 15 25 11 25 -19 0z"/>
</g>
</svg>
